<svg version="1.1" id="Layer_1" xmlns="http://www.w3.org/2000/svg" xmlns:xlink="http://www.w3.org/1999/xlink" x="0px" y="0px"
	 width="100%" viewBox="0 0 626 626" enable-background="new 0 0 626 626" xml:space="preserve">
<path fill="#FFFFFF" opacity="1.000000" stroke="none" 
	d="
M349.000000,627.000000 
	C232.666687,627.000000 116.833374,627.000000 1.000047,627.000000 
	C1.000031,418.333405 1.000031,209.666779 1.000015,1.000131 
	C209.666565,1.000087 418.333130,1.000087 626.999756,1.000044 
	C626.999878,209.666519 626.999878,418.333038 626.999939,626.999756 
	C534.500000,627.000000 442.000000,627.000000 349.000000,627.000000 
M250.085922,485.524353 
	C250.382736,485.627167 250.679550,485.729950 251.722504,485.985046 
	C255.465286,487.350922 259.208069,488.716766 262.991425,490.014801 
	C262.991425,490.014801 262.916321,490.039520 263.091064,490.518219 
	C263.387024,490.618622 263.682953,490.718994 264.738495,490.976013 
	C268.814209,492.351105 272.889923,493.726227 277.357330,495.729523 
	C281.894897,497.190765 286.432495,498.652039 291.357574,500.733887 
	C295.892731,502.191315 300.427887,503.648743 305.337952,505.729370 
	C309.547607,507.182068 313.757233,508.634766 318.357056,510.722473 
	C323.563660,512.417603 328.770233,514.112732 334.655273,516.132568 
	C340.072937,518.104492 345.490631,520.076416 351.349884,522.717041 
	C351.899506,521.173584 352.928497,519.630615 352.930023,518.086609 
	C353.008118,439.077332 352.998871,360.067963 352.997559,281.058624 
	C352.997559,279.894440 353.357422,278.503723 352.841461,277.643158 
	C352.478516,277.037842 350.912872,277.153595 349.044983,277.007111 
	C343.701996,278.071808 338.359039,279.136475 332.185852,280.054382 
	C327.460236,281.095490 322.734650,282.136597 317.180359,283.042328 
	C313.777313,283.753326 310.374237,284.464294 306.144653,285.038605 
	C301.099030,286.084229 296.053406,287.129822 290.178223,288.039154 
	C285.773102,288.990540 281.368011,289.941925 276.113617,290.980988 
	C271.745819,291.714569 267.378021,292.448151 262.210358,293.070343 
	C257.808563,294.102814 253.406769,295.135254 248.172958,296.030365 
	C243.882812,296.803955 239.592651,297.577576 235.322372,298.347595 
	C235.322372,316.292358 235.322372,333.974792 235.322372,351.831818 
	C240.428757,351.831818 245.215988,351.831818 250.913193,351.963318 
	C254.577515,351.992950 258.241821,352.022583 261.994446,352.797333 
	C262.056793,353.543243 262.119110,354.289154 262.038300,355.957947 
	C262.086060,381.624542 262.133820,407.291107 262.044128,433.615387 
	C262.001617,434.061035 261.959137,434.506714 261.170319,434.965729 
	C258.819611,434.296936 256.468872,433.628174 253.923172,432.482574 
	C253.623657,432.377716 253.324158,432.272858 252.369125,432.033600 
	C251.926254,431.984009 251.483368,431.934418 250.652344,431.261780 
	C242.113647,428.468842 233.574966,425.675873 224.660568,422.262939 
	C220.123734,420.806427 215.586884,419.349945 210.650803,417.268311 
	C202.000031,414.829742 202.000000,414.829742 202.000000,406.106140 
	C202.000000,347.458618 202.095352,288.810669 201.856812,230.164108 
	C201.832169,224.103592 202.527008,219.589462 209.697937,217.727402 
	C219.088364,212.938690 228.478790,208.149979 238.459351,203.080551 
	C241.214294,201.665665 244.975220,201.224930 244.982330,196.984894 
	C245.018265,175.559265 244.998856,154.133530 244.998856,131.696289 
	C240.630630,133.940353 236.795715,135.910431 232.214386,137.999924 
	C224.464157,141.626862 216.713943,145.253815 208.223633,148.997787 
	C202.734619,151.547058 197.255417,154.117706 191.754898,156.641907 
	C167.503784,167.770935 143.263535,178.924088 118.964424,189.947388 
	C116.609642,191.015594 115.951279,192.342422 115.953049,194.795746 
	C116.010300,274.208405 116.013680,353.621124 115.942902,433.033752 
	C115.940483,435.746521 116.671829,437.089935 119.327927,438.042938 
	C149.580933,448.898102 179.787277,459.883270 210.679504,471.180786 
	C215.439774,472.824982 220.200058,474.469177 225.360336,476.735199 
	C233.550674,479.517639 241.740997,482.300079 249.960190,485.038086 
	C249.960190,485.038086 249.908966,485.045074 250.085922,485.524353 
M372.202087,189.601913 
	C372.793335,189.666351 373.384583,189.730789 374.662323,190.130264 
	C379.445160,191.690598 384.228027,193.250931 389.686218,195.150635 
	C399.637970,198.689438 409.509735,202.484680 419.584656,205.628815 
	C423.139771,206.738281 424.091248,208.185944 424.078674,211.739182 
	C423.949615,248.223236 423.893799,284.708649 424.133057,321.191559 
	C424.163055,325.761566 422.286621,327.033966 418.520966,328.089172 
	C409.615845,330.584534 400.817322,333.460297 391.294739,336.050629 
	C390.511353,336.352783 389.727966,336.654938 389.000763,336.997162 
	C389.000763,336.997162 388.959351,336.941772 388.167603,337.011200 
	C383.149109,338.374207 378.024323,339.454041 373.176880,341.272858 
	C371.724213,341.817963 370.371521,344.349365 370.173035,346.106354 
	C369.888672,348.623352 370.641876,351.275330 371.063538,353.851440 
	C373.700043,369.959106 376.417999,386.053558 379.011139,402.168152 
	C381.788666,419.428833 384.458374,436.706879 387.031403,454.820129 
	C390.344727,475.904602 393.658051,496.989105 397.093872,518.853027 
	C399.017883,517.307129 399.749542,516.625488 400.569000,516.074585 
	C419.916870,503.066559 439.291443,490.098053 458.583099,477.007324 
	C459.640808,476.289581 460.764313,474.464722 460.596771,473.343597 
	C459.610779,466.745697 458.194672,460.213623 457.026764,453.641052 
	C453.009155,431.030762 448.994629,408.419556 445.162079,385.777710 
	C444.973877,384.665833 446.281067,382.994965 447.322144,382.067017 
	C448.359375,381.142517 449.964508,380.878662 451.276825,380.235687 
	C469.778931,371.170837 488.156830,361.837769 506.858093,353.205048 
	C511.147278,351.225098 512.097351,349.150116 512.086975,344.887299 
	C511.955475,290.570129 511.972870,236.252472 512.065369,181.935120 
	C512.071228,178.504517 511.336060,176.941788 507.677979,175.774475 
	C487.829987,169.440872 468.133759,162.632584 448.371094,156.030212 
	C429.277161,149.651230 410.166046,143.323700 390.687683,136.315231 
	C385.727325,134.881775 380.766937,133.448318 375.618286,131.298676 
	C368.773102,129.189621 361.927887,127.080582 354.694550,124.323143 
	C348.825806,122.537483 342.957031,120.751816 336.700897,118.318153 
	C332.833374,117.199844 328.965851,116.081528 324.704620,114.315506 
	C319.838013,112.862129 314.971375,111.408745 309.707367,109.311264 
	C306.295776,108.209648 302.779358,107.350578 299.503601,105.934708 
	C296.533905,104.651138 294.503143,105.093475 292.263397,108.004478 
	C288.496613,110.967957 284.729797,113.931435 280.339661,117.188118 
	C276.562653,120.184296 272.785675,123.180466 268.338531,126.246246 
	C260.853607,129.983902 260.852844,136.545135 260.892731,143.781525 
	C261.130951,186.983078 261.010651,230.186600 261.010651,273.389465 
	C261.010651,275.170959 261.010651,276.952484 261.010651,279.295532 
	C264.408325,278.364807 267.205353,277.598633 270.671082,276.955627 
	C271.120300,276.911957 271.569519,276.868317 272.534332,276.858765 
	C272.730011,276.585663 272.925690,276.312592 273.948914,276.005890 
	C277.002045,275.351196 280.055145,274.696472 283.933563,274.002747 
	C288.326294,273.015564 292.718994,272.028381 297.936737,271.002136 
	C302.327972,270.015198 306.719208,269.028259 311.942749,268.002930 
	C316.332001,267.016113 320.721252,266.029297 325.942413,264.999298 
	C330.329071,264.012634 334.715759,263.026001 339.942810,261.991089 
	C342.992950,261.466675 346.028107,260.641510 349.096771,260.488434 
	C353.684509,260.259583 354.073303,257.686371 354.055817,253.879715 
	C353.947418,230.267929 354.058716,206.655136 354.794556,183.265579 
	C360.515045,185.196625 366.235504,187.127686 371.975372,189.019577 
	C371.975372,189.019577 371.939362,189.039841 372.202087,189.601913 
z"/>
<path fill="#2F6291" opacity="1.000000" stroke="none" 
	d="
M391.062469,136.973587 
	C410.166046,143.323700 429.277161,149.651230 448.371094,156.030212 
	C468.133759,162.632584 487.829987,169.440872 507.677979,175.774475 
	C511.336060,176.941788 512.071228,178.504517 512.065369,181.935120 
	C511.972870,236.252472 511.955475,290.570129 512.086975,344.887299 
	C512.097351,349.150116 511.147278,351.225098 506.858093,353.205048 
	C488.156830,361.837769 469.778931,371.170837 451.276825,380.235687 
	C449.964508,380.878662 448.359375,381.142517 447.322144,382.067017 
	C446.281067,382.994965 444.973877,384.665833 445.162079,385.777710 
	C448.994629,408.419556 453.009155,431.030762 457.026764,453.641052 
	C458.194672,460.213623 459.610779,466.745697 460.596771,473.343597 
	C460.764313,474.464722 459.640808,476.289581 458.583099,477.007324 
	C439.291443,490.098053 419.916870,503.066559 400.569000,516.074585 
	C399.749542,516.625488 399.017883,517.307129 397.093872,518.853027 
	C393.658051,496.989105 390.344727,475.904602 387.420532,454.188782 
	C388.539734,448.896545 389.871277,444.239594 389.901917,439.574158 
	C390.095276,410.140656 390.046265,380.705048 389.953400,351.270569 
	C389.938324,346.493317 389.306213,341.717987 388.959351,336.941772 
	C388.959351,336.941772 389.000763,336.997162 389.302979,336.991943 
	C390.395325,336.718567 391.185516,336.450409 391.975677,336.182251 
	C400.817322,333.460297 409.615845,330.584534 418.520966,328.089172 
	C422.286621,327.033966 424.163055,325.761566 424.133057,321.191559 
	C423.893799,284.708649 423.949615,248.223236 424.078674,211.739182 
	C424.091248,208.185944 423.139771,206.738281 419.584656,205.628815 
	C409.509735,202.484680 399.637970,198.689438 389.345490,194.524765 
	C389.003174,176.522293 388.947632,159.145264 389.089813,141.769836 
	C389.102966,140.165802 390.374969,138.572083 391.062469,136.973587 
z"/>
<path fill="#33B1E7" opacity="1.000000" stroke="none" 
	d="
M209.004501,217.832092 
	C202.527008,219.589462 201.832169,224.103592 201.856812,230.164108 
	C202.095352,288.810669 202.000000,347.458618 202.000000,406.106140 
	C202.000000,414.829742 202.000031,414.829742 210.681030,417.972107 
	C210.474167,420.625854 210.038376,422.575134 210.031479,424.525909 
	C209.976929,439.961670 210.004074,455.397736 210.006104,470.833740 
	C179.787277,459.883270 149.580933,448.898102 119.327927,438.042938 
	C116.671829,437.089935 115.940483,435.746521 115.942902,433.033752 
	C116.013680,353.621124 116.010300,274.208405 115.953049,194.795746 
	C115.951279,192.342422 116.609642,191.015594 118.964424,189.947388 
	C143.263535,178.924088 167.503784,167.770935 191.754898,156.641907 
	C197.255417,154.117706 202.734619,151.547058 208.604935,149.416443 
	C208.992325,172.500748 208.998413,195.166428 209.004501,217.832092 
z"/>
<path fill="#2E78A8" opacity="1.000000" stroke="none" 
	d="
M350.908295,522.048340 
	C345.490631,520.076416 340.072937,518.104492 334.135010,515.606750 
	C333.409851,513.451294 333.026154,511.821747 333.025665,510.192047 
	C333.001556,433.528412 333.010712,356.864807 333.016052,280.201172 
	C338.359039,279.136475 343.701996,278.071808 349.870117,277.071289 
	C351.130981,278.782501 351.946564,280.429169 351.947876,282.076508 
	C352.010406,360.355774 352.009369,438.635071 351.956726,516.914307 
	C351.955597,518.625916 351.273010,520.337036 350.908295,522.048340 
z"/>
<path fill="#3280B0" opacity="1.000000" stroke="none" 
	d="
M332.600952,280.127777 
	C333.010712,356.864807 333.001556,433.528412 333.025665,510.192047 
	C333.026154,511.821747 333.409851,513.451294 333.795807,515.444397 
	C328.770233,514.112732 323.563660,512.417603 318.172852,509.930481 
	C317.995422,433.818237 318.002228,358.497986 318.009033,283.177734 
	C322.734650,282.136597 327.460236,281.095490 332.600952,280.127777 
z"/>
<path fill="#3585B6" opacity="1.000000" stroke="none" 
	d="
M317.594696,283.110046 
	C318.002228,358.497986 317.995422,433.818237 317.977722,509.612976 
	C313.757233,508.634766 309.547607,507.182068 305.114014,504.993958 
	C304.593414,502.302643 304.038635,500.346832 304.037384,498.390717 
	C303.992737,429.395111 303.974121,360.399414 304.124756,291.404114 
	C304.129272,289.325745 305.980774,287.251434 306.971191,285.175262 
	C310.374237,284.464294 313.777313,283.753326 317.594696,283.110046 
z"/>
<path fill="#3390C2" opacity="1.000000" stroke="none" 
	d="
M276.962891,290.893311 
	C281.368011,289.941925 285.773102,288.990540 290.590637,288.564026 
	C290.992035,359.430389 290.981049,429.771820 290.970062,500.113281 
	C286.432495,498.652039 281.894897,497.190765 277.172333,494.939789 
	C276.979187,426.397797 276.971039,358.645569 276.962891,290.893311 
z"/>
<path fill="#3196C8" opacity="1.000000" stroke="none" 
	d="
M276.538269,290.937134 
	C276.971039,358.645569 276.979187,426.397797 276.976501,494.625702 
	C272.889923,493.726227 268.814209,492.351105 264.231018,490.708130 
	C263.500641,490.213684 263.231567,490.080109 262.916321,490.039520 
	C262.916321,490.039520 262.991425,490.014801 262.987152,489.573944 
	C262.988586,472.772522 263.026123,456.411804 262.952515,440.051605 
	C262.944855,438.350342 262.277740,436.652039 261.916626,434.952362 
	C261.959137,434.506714 262.001617,434.061035 262.371399,432.968445 
	C262.799011,431.672211 262.986664,431.023041 262.987091,430.373718 
	C263.002960,406.512024 263.013885,382.650269 262.967407,358.788666 
	C262.964996,357.536957 262.455078,356.286255 262.181427,355.035065 
	C262.119110,354.289154 262.056793,353.543243 262.263000,352.137817 
	C262.687714,349.676758 262.975739,347.875519 262.979553,346.073700 
	C263.016907,328.443085 263.006805,310.812378 263.010223,293.181702 
	C267.378021,292.448151 271.745819,291.714569 276.538269,290.937134 
z"/>
<path fill="#348ABC" opacity="1.000000" stroke="none" 
	d="
M291.163818,500.423584 
	C290.981049,429.771820 290.992035,359.430389 291.005371,288.632202 
	C296.053406,287.129822 301.099030,286.084229 306.557922,285.106934 
	C305.980774,287.251434 304.129272,289.325745 304.124756,291.404114 
	C303.974121,360.399414 303.992737,429.395111 304.037384,498.390717 
	C304.038635,500.346832 304.593414,502.302643 304.926575,504.682373 
	C300.427887,503.648743 295.892731,502.191315 291.163818,500.423584 
z"/>
<path fill="#2E78A8" opacity="1.000000" stroke="none" 
	d="
M337.088257,118.966156 
	C342.957031,120.751816 348.825806,122.537483 354.488708,124.667366 
	C353.189301,126.751488 351.174286,128.476746 351.146362,130.233582 
	C350.898651,145.815552 350.890411,161.404892 351.140259,176.986801 
	C351.172852,179.020691 353.065826,181.024780 354.097076,183.042679 
	C354.058716,206.655136 353.947418,230.267929 354.055817,253.879715 
	C354.073303,257.686371 353.684509,260.259583 349.096771,260.488434 
	C346.028107,260.641510 342.992950,261.466675 339.112061,262.000671 
	C333.409332,261.849548 334.101990,258.006073 334.065735,255.112396 
	C333.911652,242.821014 334.000000,230.526566 334.000000,218.233246 
	C333.999939,187.832199 333.922302,157.430603 334.134155,127.031021 
	C334.152893,124.335991 336.058838,121.654129 337.088257,118.966156 
z"/>
<path fill="#348ABC" opacity="1.000000" stroke="none" 
	d="
M292.963409,107.894623 
	C294.503143,105.093475 296.533905,104.651138 299.503601,105.934708 
	C302.779358,107.350578 306.295776,108.209648 309.549255,109.825134 
	C308.927063,112.351570 308.060791,114.363510 308.057648,116.376793 
	C307.982117,164.990540 307.998718,213.604446 307.999207,262.218323 
	C307.999207,263.217194 307.640656,264.447113 308.092926,265.162109 
	C308.813995,266.302002 310.076752,267.099243 311.110443,268.041351 
	C306.719208,269.028259 302.327972,270.015198 297.123779,270.999664 
	C292.361145,269.577423 293.024963,266.146149 293.022888,263.139587 
	C292.989258,214.321533 292.999695,165.503464 292.997559,116.685387 
	C292.997406,113.755135 292.975281,110.824875 292.963409,107.894623 
z"/>
<path fill="#3585B6" opacity="1.000000" stroke="none" 
	d="
M311.526611,268.022156 
	C310.076752,267.099243 308.813995,266.302002 308.092926,265.162109 
	C307.640656,264.447113 307.999207,263.217194 307.999207,262.218323 
	C307.998718,213.604446 307.982117,164.990540 308.057648,116.376793 
	C308.060791,114.363510 308.927063,112.351570 309.747986,110.147186 
	C314.971375,111.408745 319.838013,112.862129 324.488739,114.658798 
	C320.436920,115.203903 321.010864,118.068916 321.009399,120.505585 
	C320.992981,147.805069 320.998810,175.104568 320.998810,202.404053 
	C320.998810,221.546982 321.026733,240.690002 320.970520,259.832764 
	C320.961731,262.820618 321.250305,265.270782 325.110504,265.042480 
	C320.721252,266.029297 316.332001,267.016113 311.526611,268.022156 
z"/>
<path fill="#3280B0" opacity="1.000000" stroke="none" 
	d="
M325.526459,265.020874 
	C321.250305,265.270782 320.961731,262.820618 320.970520,259.832764 
	C321.026733,240.690002 320.998810,221.546982 320.998810,202.404053 
	C320.998810,175.104568 320.992981,147.805069 321.009399,120.505585 
	C321.010864,118.068916 320.436920,115.203903 324.685608,114.982658 
	C328.965851,116.081528 332.833374,117.199844 336.894592,118.642151 
	C336.058838,121.654129 334.152893,124.335991 334.134155,127.031021 
	C333.922302,157.430603 333.999939,187.832199 334.000000,218.233246 
	C334.000000,230.526566 333.911652,242.821014 334.065735,255.112396 
	C334.101990,258.006073 333.409332,261.849548 338.691864,262.024811 
	C334.715759,263.026001 330.329071,264.012634 325.526459,265.020874 
z"/>
<path fill="#3390C2" opacity="1.000000" stroke="none" 
	d="
M292.613403,107.949554 
	C292.975281,110.824875 292.997406,113.755135 292.997559,116.685387 
	C292.999695,165.503464 292.989258,214.321533 293.022888,263.139587 
	C293.024963,266.146149 292.361145,269.577423 296.711304,271.019165 
	C292.718994,272.028381 288.326294,273.015564 283.116394,273.928894 
	C281.865753,271.878510 281.056824,269.902618 281.053650,267.925385 
	C280.972107,217.581985 280.974945,167.238434 280.963013,116.894913 
	C284.729797,113.931435 288.496613,110.967957 292.613403,107.949554 
z"/>
<path fill="#3196C8" opacity="1.000000" stroke="none" 
	d="
M280.651337,117.041519 
	C280.974945,167.238434 280.972107,217.581985 281.053650,267.925385 
	C281.056824,269.902618 281.865753,271.878510 282.703735,273.948395 
	C280.055145,274.696472 277.002045,275.351196 273.309326,276.087036 
	C272.376282,276.311218 272.159302,276.530060 272.018738,276.824677 
	C271.569519,276.868317 271.120300,276.911957 270.273193,276.491272 
	C269.583130,273.906891 269.037933,271.787109 269.035950,269.666840 
	C268.990875,221.836807 269.005371,174.006714 269.008667,126.176636 
	C272.785675,123.180466 276.562653,120.184296 280.651337,117.041519 
z"/>
<path fill="#30ACE1" opacity="1.000000" stroke="none" 
	d="
M209.351227,217.779755 
	C208.998413,195.166428 208.992325,172.500748 208.974976,149.357925 
	C216.713943,145.253815 224.464157,141.626862 232.599060,138.417191 
	C232.988358,158.385971 233.092239,177.938400 232.912415,197.488220 
	C232.877167,201.318390 233.642563,203.563110 237.869217,203.361282 
	C228.478790,208.149979 219.088364,212.938690 209.351227,217.779755 
z"/>
<path fill="#32A3D7" opacity="1.000000" stroke="none" 
	d="
M225.036285,422.882904 
	C233.574966,425.675873 242.113647,428.468842 250.795380,431.968231 
	C250.292068,436.043823 249.079636,439.416077 249.097977,442.781586 
	C249.174896,456.882996 249.620682,470.982422 249.931320,485.082550 
	C241.740997,482.300079 233.550674,479.517639 225.164368,475.993286 
	C224.991028,457.795227 225.013657,440.339050 225.036285,422.882904 
z"/>
<path fill="#306897" opacity="1.000000" stroke="none" 
	d="
M388.563477,336.976501 
	C389.306213,341.717987 389.938324,346.493317 389.953400,351.270569 
	C390.046265,380.705048 390.095276,410.140656 389.901917,439.574158 
	C389.871277,444.239594 388.539734,448.896545 387.492371,453.767365 
	C384.458374,436.706879 381.788666,419.428833 379.011139,402.168152 
	C376.417999,386.053558 373.700043,369.959106 371.063538,353.851440 
	C370.641876,351.275330 369.888672,348.623352 370.173035,346.106354 
	C370.371521,344.349365 371.724213,341.817963 373.176880,341.272858 
	C378.024323,339.454041 383.149109,338.374207 388.563477,336.976501 
z"/>
<path fill="#2D70A0" opacity="1.000000" stroke="none" 
	d="
M354.445801,183.154129 
	C353.065826,181.024780 351.172852,179.020691 351.140259,176.986801 
	C350.890411,161.404892 350.898651,145.815552 351.146362,130.233582 
	C351.174286,128.476746 353.189301,126.751488 354.682800,124.991562 
	C361.927887,127.080582 368.773102,129.189621 375.302277,131.657654 
	C371.054291,131.836319 372.035034,134.777130 372.027374,136.882523 
	C371.964294,154.274445 371.970673,171.666626 371.955994,189.058731 
	C366.235504,187.127686 360.515045,185.196625 354.445801,183.154129 
z"/>
<path fill="#319CCF" opacity="1.000000" stroke="none" 
	d="
M268.673584,126.211441 
	C269.005371,174.006714 268.990875,221.836807 269.035950,269.666840 
	C269.037933,271.787109 269.583130,273.906891 269.938843,276.429688 
	C267.205353,277.598633 264.408325,278.364807 261.010651,279.295532 
	C261.010651,276.952484 261.010651,275.170959 261.010651,273.389465 
	C261.010651,230.186600 261.130951,186.983078 260.892731,143.781525 
	C260.852844,136.545135 260.853607,129.983902 268.673584,126.211441 
z"/>
<path fill="#306897" opacity="1.000000" stroke="none" 
	d="
M371.965698,189.039154 
	C371.970673,171.666626 371.964294,154.274445 372.027374,136.882523 
	C372.035034,134.777130 371.054291,131.836319 375.396423,132.015732 
	C380.766937,133.448318 385.727325,134.881775 390.875061,136.644409 
	C390.374969,138.572083 389.102966,140.165802 389.089813,141.769836 
	C388.947632,159.145264 389.003174,176.522293 389.007812,194.355072 
	C384.228027,193.250931 379.445160,191.690598 374.127014,189.750732 
	C373.040894,189.260727 372.490143,189.150284 371.939362,189.039841 
	C371.939362,189.039841 371.975372,189.019577 371.965698,189.039154 
z"/>
<path fill="#319CCF" opacity="1.000000" stroke="none" 
	d="
M262.610291,293.126038 
	C263.006805,310.812378 263.016907,328.443085 262.979553,346.073700 
	C262.975739,347.875519 262.687714,349.676758 262.218872,351.765259 
	C258.241821,352.022583 254.577515,351.992950 250.399475,351.522888 
	C249.259857,349.592804 248.076035,348.096588 248.093460,346.614471 
	C248.291214,329.797638 248.672684,312.982971 249.004974,296.167725 
	C253.406769,295.135254 257.808563,294.102814 262.610291,293.126038 
z"/>
<path fill="#32A3D7" opacity="1.000000" stroke="none" 
	d="
M238.164276,203.220917 
	C233.642563,203.563110 232.877167,201.318390 232.912415,197.488220 
	C233.092239,177.938400 232.988358,158.385971 232.972275,138.357483 
	C236.795715,135.910431 240.630630,133.940353 244.998856,131.696289 
	C244.998856,154.133530 245.018265,175.559265 244.982330,196.984894 
	C244.975220,201.224930 241.214294,201.665665 238.164276,203.220917 
z"/>
<path fill="#30ACE1" opacity="1.000000" stroke="none" 
	d="
M224.848419,422.572937 
	C225.013657,440.339050 224.991028,457.795227 224.964371,475.682373 
	C220.200058,474.469177 215.439774,472.824982 210.342804,471.007263 
	C210.004074,455.397736 209.976929,439.961670 210.031479,424.525909 
	C210.038376,422.575134 210.474167,420.625854 210.880646,418.284668 
	C215.586884,419.349945 220.123734,420.806427 224.848419,422.572937 
z"/>
<path fill="#319CCF" opacity="1.000000" stroke="none" 
	d="
M249.945755,485.060303 
	C249.620682,470.982422 249.174896,456.882996 249.097977,442.781586 
	C249.079636,439.416077 250.292068,436.043823 250.989441,432.279785 
	C251.483368,431.934418 251.926254,431.984009 252.828735,432.294312 
	C253.518311,432.785492 253.794907,432.920288 254.118149,432.959412 
	C256.468872,433.628174 258.819611,434.296936 261.543457,434.959045 
	C262.277740,436.652039 262.944855,438.350342 262.952515,440.051605 
	C263.026123,456.411804 262.988586,472.772522 262.966858,489.607849 
	C259.208069,488.716766 255.465286,487.350922 251.222107,485.717041 
	C250.498306,485.218872 250.227386,485.084198 249.908966,485.045074 
	C249.908966,485.045074 249.960190,485.038086 249.945755,485.060303 
z"/>
<path fill="#32A3D7" opacity="1.000000" stroke="none" 
	d="
M248.588959,296.099060 
	C248.672684,312.982971 248.291214,329.797638 248.093460,346.614471 
	C248.076035,348.096588 249.259857,349.592804 249.944489,351.457153 
	C245.215988,351.831818 240.428757,351.831818 235.322372,351.831818 
	C235.322372,333.974792 235.322372,316.292358 235.322372,298.347595 
	C239.592651,297.577576 243.882812,296.803955 248.588959,296.099060 
z"/>
<path fill="#3585B6" opacity="1.000000" stroke="none" 
	d="
M351.129089,522.382690 
	C351.273010,520.337036 351.955597,518.625916 351.956726,516.914307 
	C352.009369,438.635071 352.010406,360.355774 351.947876,282.076508 
	C351.946564,280.429169 351.130981,278.782501 350.289734,277.041443 
	C350.912872,277.153595 352.478516,277.037842 352.841461,277.643158 
	C353.357422,278.503723 352.997559,279.894440 352.997559,281.058624 
	C352.998871,360.067963 353.008118,439.077332 352.930023,518.086609 
	C352.928497,519.630615 351.899506,521.173584 351.129089,522.382690 
z"/>
<path fill="#319CCF" opacity="1.000000" stroke="none" 
	d="
M262.109863,355.496521 
	C262.455078,356.286255 262.964996,357.536957 262.967407,358.788666 
	C263.013885,382.650269 263.002960,406.512024 262.987091,430.373718 
	C262.986664,431.023041 262.799011,431.672211 262.440125,432.639587 
	C262.133820,407.291107 262.086060,381.624542 262.109863,355.496521 
z"/>
<path fill="#306897" opacity="1.000000" stroke="none" 
	d="
M391.635193,336.116455 
	C391.185516,336.450409 390.395325,336.718567 389.274872,336.971924 
	C389.727966,336.654938 390.511353,336.352783 391.635193,336.116455 
z"/>
<path fill="#2D70A0" opacity="1.000000" stroke="none" 
	d="
M372.070740,189.320877 
	C372.490143,189.150284 373.040894,189.260727 373.783752,189.583206 
	C373.384583,189.730789 372.793335,189.666351 372.070740,189.320877 
z"/>
<path fill="#319CCF" opacity="1.000000" stroke="none" 
	d="
M272.276550,276.841736 
	C272.159302,276.530060 272.376282,276.311218 272.895538,276.103821 
	C272.925690,276.312592 272.730011,276.585663 272.276550,276.841736 
z"/>
<path fill="#32A3D7" opacity="1.000000" stroke="none" 
	d="
M254.020660,432.721008 
	C253.794907,432.920288 253.518311,432.785492 253.156494,432.361511 
	C253.324158,432.272858 253.623657,432.377716 254.020660,432.721008 
z"/>
<path fill="#32A3D7" opacity="1.000000" stroke="none" 
	d="
M249.997437,485.284729 
	C250.227386,485.084198 250.498306,485.218872 250.849045,485.640900 
	C250.679550,485.729950 250.382736,485.627167 249.997437,485.284729 
z"/>
<path fill="#319CCF" opacity="1.000000" stroke="none" 
	d="
M263.003693,490.278870 
	C263.231567,490.080109 263.500641,490.213684 263.851227,490.629822 
	C263.682953,490.718994 263.387024,490.618622 263.003693,490.278870 
z"/>
</svg>